<svg xmlns="http://www.w3.org/2000/svg" id="Layer_1" data-name="Layer 1" viewBox="0 0 1500 1000"><defs><style>      .cls-1, .cls-2 {        fill: #fff;      }      .cls-3 {        fill: #59a912;      }      .cls-2 {        opacity: .15;      }      .cls-4 {        fill: #464547;      }      .cls-5 {        fill: #704512;      }      .cls-6 {        fill: #0e6ecc;      }    </style></defs><g><path class="cls-1" d="M1480.08,650.6c0,86.59-70.45,157.03-157.03,157.03-51.46,0-97.21-24.88-125.87-63.23-2.33,23.84-11,43.56-25.85,58.77-12.22,12.52-34.51,27.45-71.25,27.45-29.96,0-58-10.1-76.94-27.71-2.78-2.59-5.25-5.4-7.38-8.4-1.4-1.95-2.66-3.98-3.77-6.07-1.71.86-3.46,1.67-5.23,2.42-12.61,5.39-26.69,8.2-41.66,8.2s-29.97-3.05-42.87-8.61c-13.01,5.67-27.95,8.61-44.03,8.61-10.11,0-20.19-1.21-29.75-3.47-5.23,1.62-10.78,2.5-16.54,2.5h-15.59c-8.16,0-15.91-1.76-22.89-4.92-10.6,3.87-22.22,5.89-34.45,5.89-10.39,0-20.23-1.47-29.32-4.31-9.1,2.84-18.94,4.31-29.32,4.31-33.99,0-55.2-14.46-67.24-27.13-9.8,15.71-27.23,26.16-47.11,26.16h-15.59c-7.2,0-14.08-1.37-20.4-3.87-10.16,3.19-21.1,4.84-32.56,4.84-12.11,0-23.6-1.86-34.19-5.34-9.56,3.51-19.98,5.34-30.78,5.34-10.16,0-19.73-1.56-28.5-4.46-6.05,2.26-12.59,3.49-19.42,3.49h-14.94c-3.64,0-7.2-.35-10.65-1.02-6.47,1.31-13.18,1.99-20.05,1.99-16.74,0-32.69-3.85-46.77-11.13-13.51,7.28-29.24,11.13-46.14,11.13-10.38,0-20.22-1.47-29.31-4.31-9.11,2.84-18.95,4.31-29.33,4.31-35.1,0-56.56-15.42-68.39-28.36-10.87-11.88-23.82-33.1-23.82-66.66v-47.66c0-1.4.05-2.79.15-4.16-9.79-2.36-19.28-5.61-28.4-9.73-21.91-9.87-40.17-23.55-54.29-40.66-18.09-21.92-16.69-53.97,3.24-74.23l20.06-20.4c10.64-10.81,25.18-16.8,40.3-16.58-11.72-7.19-22.29-15.71-31.41-25.31-10.59-11.14-19.17-24.3-25.49-39.1-6.68-15.63-10.06-33.26-10.06-52.39,0-21.6,4.07-41.38,12.09-58.8,8.01-17.39,19.17-32.29,33.17-44.3,13.38-11.46,28.63-20.1,45.35-25.7,15.58-5.21,32.02-7.86,48.86-7.86,21.65,0,41.9,3.54,60.17,10.53,20.89,7.99,38.69,20.69,52.9,37.74.63.75,1.23,1.52,1.81,2.29l.91-3.19c6.79-23.85,28.58-40.29,53.37-40.29h44.32c24.94,0,46.82,16.64,53.48,40.68l8.31,30.01c2.13-3.52,4.36-6.94,6.69-10.25,14.44-20.58,32.59-37.03,53.93-48.88,22.29-12.37,47.36-18.64,74.53-18.64,23.76,0,46.13,4.5,66.48,13.36,6.08,2.65,11.9,5.71,17.45,9.17,10.29-9.72,23.91-15.16,38.11-15.16h.03c31.48.02,62.96.04,94.43.07,1.63-.14,3.27-.22,4.93-.22h79c30.65,0,55.5,24.85,55.5,55.5v27c0,4.84-.92,9.58-2.42,14.12h11.9c19.16-97.69,105.44-171.62,208.67-171.62,117.25,0,212.65,95.4,212.65,212.65,0,40.04-11.22,78.68-31.82,111.93,81.47,5.66,146.03,73.76,146.03,156.64Z"></path><path class="cls-1" d="M1015.76,794.51c-3.11-1.04-6.11-2.26-9-3.65,1.77-.75,3.52-1.56,5.23-2.42,1.11,2.09,2.37,4.12,3.77,6.07Z"></path></g><g><path class="cls-5" d="M240.09,519.07c0,13.04-2.18,24.63-6.53,34.75-4.36,10.13-10.34,18.73-17.96,25.81-7.62,7.07-16.56,12.48-26.82,16.23-10.26,3.74-21.15,5.62-32.65,5.62-16.79,0-32.27-3.19-46.41-9.57-14.16-6.38-25.58-14.84-34.29-25.39l20.06-20.39c7.15,9.16,16.17,16.23,27.06,21.23,10.88,4.99,21.92,7.49,33.12,7.49,14.93,0,27.44-4.71,37.55-14.15,10.1-9.43,15.16-22.89,15.16-40.37,0-8.32-1.56-15.67-4.66-22.06-3.11-6.38-7.31-12.07-12.59-17.06-5.29-5-11.28-9.43-17.96-13.32-6.69-3.88-13.76-7.49-21.22-10.82-9.02-3.88-17.57-8.25-25.66-13.11-8.09-4.85-15.16-10.47-21.22-16.86-6.06-6.38-10.96-13.94-14.7-22.68-3.73-8.74-5.6-18.94-5.6-30.59,0-13.59,2.33-25.45,7-35.58,4.66-10.12,10.96-18.59,18.89-25.39,7.93-6.8,16.87-11.86,26.82-15.19,9.95-3.33,20.36-4.99,31.25-4.99,14.93,0,28.37,2.29,40.35,6.87,11.97,4.58,22,11.72,30.09,21.43l-20.06,20.39c-6.22-8.04-13.53-13.8-21.92-17.27-8.4-3.47-17.57-5.2-27.52-5.2-6.53,0-12.99,1.04-19.36,3.12-6.38,2.08-12.06,5.35-17.03,9.78-4.98,4.44-9.02,10.13-12.13,17.06-3.11,6.94-4.67,15.13-4.67,24.56,0,8.32,1.4,15.54,4.2,21.64,2.8,6.1,6.6,11.52,11.43,16.23,4.82,4.72,10.41,8.88,16.79,12.49,6.37,3.61,12.98,6.94,19.83,9.99,8.7,3.89,17.33,8.32,25.89,13.32,8.55,5,16.25,10.82,23.09,17.48,6.84,6.66,12.28,14.43,16.33,23.31,4.04,8.88,6.06,19.29,6.06,31.21Z"></path><path class="cls-5" d="M429.78,594.4l-20.06-73.66h-101.69l-20.99,73.66h-33.12l83.97-294.66h44.32l81.63,294.66h-34.05ZM360.28,325.96h-1.87l-45.71,171.47h92.36l-44.78-171.47Z"></path><path class="cls-5" d="M628.82,593.38c-12.91,4.28-28.07,6.43-45.48,6.43-18.35,0-34.83-3.61-49.45-10.82-14.62-7.21-26.9-17.48-36.85-30.8-9.96-13.32-17.57-29.41-22.86-48.28-5.29-18.87-7.93-39.95-7.93-63.26,0-21.91,2.56-42.31,7.7-61.18,5.13-18.87,12.51-35.17,22.16-48.9,9.64-13.73,21.46-24.48,35.45-32.25,13.99-7.76,29.85-11.65,47.58-11.65,16.17,0,30.94,2.91,44.32,8.74,13.37,5.83,24.56,14.98,33.59,27.47l-20.99,19.14c-7.16-9.71-15.47-16.99-24.96-21.85-9.49-4.85-19.67-7.28-30.55-7.28-13.69,0-25.5,3.4-35.45,10.2-9.96,6.8-18.27,16.02-24.96,27.68-6.69,11.65-11.66,25.18-14.93,40.58-3.26,15.4-4.9,31.84-4.9,49.32s1.71,35.24,5.13,50.78c3.42,15.54,8.63,28.92,15.63,40.16,7,11.24,15.7,20.05,26.12,26.43,10.41,6.39,22.46,9.57,36.15,9.57,9.95,0,18.89-1.1,26.82-3.33,7.93-2.22,14.53-5.41,19.83-9.57v-99.88h-47.11v-24.97h78.84v140.31c-9.02,7.2-19.99,12.94-32.89,17.23Z"></path><g><path class="cls-3" d="M990.28,518.31c0,43.59-35.34,78.93-78.93,78.93s-78.93-35.34-78.93-78.93,35.34-78.93,78.93-78.93c23.33,0,44.29,10.12,58.74,26.22-1.37.18-9.98,1.43-14.52,8.8-5.71,9.28.23,19.8,1.35,21.78.79,1.41,8.09,13.89,19.49,12.59,6.61-.75,10.81-5.71,12.06-7.31,1.18,5.43,1.81,11.06,1.81,16.85Z"></path><path class="cls-4" d="M965.54,477.59c-3.54,4.85-4.25,10.61-1.83,15.01,2.58,4.68,8.3,7.08,14.65,6.14,45.11-27.34,90.21-54.69,135.32-82.03l-12.82-21.15-135.32,82.03Z"></path><path class="cls-6" d="M1310.37,382.03c0,47.94-21.46,90.86-55.3,119.68-1.01-1.53-2.52-3.9-4.26-6.85-7.43-12.64-7.41-16.59-12.46-20.03-4.86-3.31-10.28-3.33-12.3-3.33-2.12,0-7.1.25-12.37,3.3-1.84,1.06-5.42,3.45-8.29,7.82-.94,1.43-5.07,7.73-4.01,15.21.83,5.87,4.12,7.14,13.34,21.44,1.56,2.42,2.8,4.45,3.62,5.83-4.05,1.85-10.22,4.46-17.96,6.89-14.89,4.68-30.73,7.2-47.16,7.2-86.79,0-157.16-70.36-157.16-157.16s70.37-157.15,157.16-157.15,157.15,70.36,157.15,157.15Z"></path><ellipse class="cls-2" cx="1129.23" cy="324.65" rx="91.62" ry="65.85" transform="translate(-24.79 545.53) rotate(-26.88)"></ellipse><ellipse class="cls-2" cx="894.07" cy="483.56" rx="38.1" ry="27.38" transform="translate(-122.03 456.39) rotate(-26.88)"></ellipse><path class="cls-4" d="M1234.98,483c-5.64-4.09-12.24-4.9-17.2-2.1-5.29,2.98-7.88,9.59-6.63,16.93,32.41,52.11,64.82,104.21,97.23,156.32l23.83-14.82-97.23-156.32Z"></path><circle class="cls-3" cx="1323.05" cy="650.6" r="101.53"></circle><ellipse class="cls-2" cx="1302.45" cy="609.91" rx="51.63" ry="37.11" transform="translate(-135.04 654.64) rotate(-26.88)"></ellipse></g><g><path class="cls-6" d="M302.71,656.38v47.66c0,25.21-12.67,39.53-36.71,39.53-13.32,0-23.39-4.39-29.24-15.45-5.69,10.57-15.27,15.45-29.4,15.45-24.2,0-36.71-14.31-36.71-39.53v-47.66h15.59v46.2c0,18.22,6.33,27,21.12,27s21.6-8.78,21.6-27v-46.2h15.59v46.2c0,18.22,6.82,27,21.6,27s20.95-8.78,20.95-27v-46.2h15.59Z"></path><path class="cls-6" d="M404.56,656.38v86.21h-14.94v-13.66c-6.98,9.76-18.03,14.64-30.7,14.64-25.18,0-43.53-17.73-43.53-44.08s18.35-43.92,43.53-43.92c12.18,0,22.9,4.55,30.05,13.83v-13.01h15.59ZM389.13,699.48c0-18.38-12.51-30.25-28.91-30.25s-29.08,11.87-29.08,30.25,12.51,30.42,29.08,30.42,28.91-12.04,28.91-30.42Z"></path><path class="cls-6" d="M471.32,737.54c-4.71,4.07-11.86,6.02-18.84,6.02-17.38,0-27.29-9.6-27.29-27v-79.05h15.59v18.87h24.69v12.85h-24.69v46.68c0,9.27,4.71,14.48,13.48,14.48,4.55,0,8.93-1.46,12.18-4.07l4.87,11.22Z"></path><path class="cls-6" d="M542.78,719.49l8.45,10.08c-7.63,9.11-19.49,13.99-33.79,13.99-27.78,0-46.29-18.38-46.29-44.08s18.19-43.92,43.21-43.92c23.55,0,41.91,16.59,42.39,42.29l-68.38,13.34c4.39,11.87,15.11,18.71,29.56,18.71,10.07,0,18.52-3.42,24.85-10.41ZM486.26,698.67v1.63l55.06-10.41c-2.76-12.36-12.99-21.15-26.96-21.15-16.41,0-28.1,11.87-28.1,29.93Z"></path><path class="cls-6" d="M616.69,655.56v15.13c-1.3-.16-2.44-.16-3.57-.16-16.73,0-27.13,10.25-27.13,29.12v42.94h-15.59v-86.21h14.94v14.48c5.52-10.08,16.24-15.29,31.35-15.29Z"></path><path class="cls-6" d="M795.69,656.38v47.66c0,25.21-12.67,39.53-36.71,39.53-13.32,0-23.39-4.39-29.24-15.45-5.69,10.57-15.27,15.45-29.4,15.45-24.2,0-36.71-14.31-36.71-39.53v-47.66h15.59v46.2c0,18.22,6.33,27,21.12,27s21.6-8.78,21.6-27v-46.2h15.59v46.2c0,18.22,6.82,27,21.6,27s20.95-8.78,20.95-27v-46.2h15.59Z"></path><path class="cls-6" d="M813.56,629.7c0-5.69,4.55-10.25,10.56-10.25s10.56,4.39,10.56,9.92c0,5.86-4.39,10.41-10.56,10.41s-10.56-4.39-10.56-10.08ZM816.32,656.38h15.59v86.21h-15.59v-86.21Z"></path><path class="cls-6" d="M842.63,733.48l6.5-12.36c7.31,5.21,19,8.95,30.21,8.95,14.46,0,20.47-4.39,20.47-11.71,0-19.36-54.41-2.6-54.41-36.92,0-15.45,13.81-25.86,35.9-25.86,11.21,0,23.88,2.93,31.35,7.81l-6.66,12.36c-7.8-5.04-16.41-6.83-24.85-6.83-13.64,0-20.3,5.04-20.3,11.87,0,20.33,54.58,3.74,54.58,37.25,0,15.62-14.29,25.54-37.2,25.54-14.29,0-28.43-4.39-35.57-10.08Z"></path><path class="cls-6" d="M990.44,719.49l8.45,10.08c-7.63,9.11-19.49,13.99-33.79,13.99-27.78,0-46.29-18.38-46.29-44.08s18.19-43.92,43.21-43.92c23.55,0,41.91,16.59,42.39,42.29l-68.38,13.34c4.38,11.87,15.11,18.71,29.56,18.71,10.07,0,18.52-3.42,24.85-10.41ZM933.92,698.67v1.63l55.06-10.41c-2.76-12.36-13-21.15-26.96-21.15-16.41,0-28.1,11.87-28.1,29.93Z"></path><path class="cls-6" d="M1018.06,717.21v-95.32h15.59v94.02c0,9.27,4.39,14.48,13.32,14.48,2.92,0,5.85-.81,7.63-1.63l.81,12.85c-3.57,1.3-7.47,1.95-11.21,1.95-16.73,0-26.15-9.76-26.15-26.35Z"></path><path class="cls-6" d="M1142.32,656.38v74.5c0,30.42-14.46,44.24-42.23,44.24-14.94,0-30.05-4.39-39.15-12.85l7.63-12.04c7.47,6.83,18.68,11.06,30.7,11.06,19,0,27.45-9.27,27.45-28.79v-6.34c-6.33,8.3-16.73,12.85-28.42,12.85-22.25,0-37.03-12.04-37.03-37.41v-45.22h15.59v43.43c0,16.75,8.45,25.21,23.23,25.21,16.24,0,26.64-10.08,26.64-28.63v-40.01h15.59Z"></path></g><path class="cls-5" d="M879.57,299.88v27c-48.85.07-97.71.13-146.56.2v109.35h111.01s-19.42,26.89-19.42,26.89c0,.01-.01.01-.01.02h-91.58v105.98h88.78l19.09,25.52c-46.57.26-93.12.52-139.7.79v-295.6c33.13.02,66.26.04,99.39.07v-.22h79Z"></path></g></svg>